# xmcd CD database file
#
# Track frame offsets:
#	150
#	14150
#	27077
#	41865
#	57521
#	70309
#	81326
#	91890
#	104121
#	116499
#	129983
#	144951
#	158157
#	172075
#	184007
#	197962
#	210662
#	223432
#	236508
#	248216
#	258835
#	274914
#	297759
#	312539
#	323721
#	335405
#
# Disc length: 4636 seconds
#
# Revision: 2
# Processed by: cddbd v1.5.2PL0 Copyright (c) Steve Scherf et al.
# Submitted via: CDex 1.51
#
DISCID=97121a1a
DTITLE=Elmore James - The Very Best Of Elmore James - Dust My Broom
DYEAR=2004
DGENRE=Blues
TTITLE0=Please Find My Baby
TTITLE1=Hand In Hand
TTITLE2=I Believe
TTITLE3=I Held My Baby Last Night
TTITLE4=Early In The Morning
TTITLE5=Can't Stop Lovin'
TTITLE6=Hawaiian Boogie
TTITLE7=Make My Dream Come True
TTITLE8=Blues Before Sunrise
TTITLE9=Goodbye Baby
TTITLE10=Wild About You
TTITLE11=Long Tall Woman
TTITLE12=Twelve Year Old Boy
TTITLE13=Knockin' At Your Door
TTITLE14=It Hurts Me Too
TTITLE15=Cry For Me
TTITLE16=The Sky Is Crying
TTITLE17=Baby Please Set A Date
TTITLE18=Rollin' And Tumblin'
TTITLE19=Done Somebody Wromg
TTITLE20=I Need You Baby
TTITLE21=Something Inside Of Me
TTITLE22=Stranger Blues
TTITLE23=Look On Yonder Wall
TTITLE24=Shake Your Moneymaker
TTITLE25=Dust My Broom
EXTD=YEAR: 2004
EXTT0=
EXTT1=
EXTT2=
EXTT3=
EXTT4=
EXTT5=
EXTT6=
EXTT7=
EXTT8=
EXTT9=
EXTT10=
EXTT11=
EXTT12=
EXTT13=
EXTT14=
EXTT15=
EXTT16=
EXTT17=
EXTT18=
EXTT19=
EXTT20=
EXTT21=
EXTT22=
EXTT23=
EXTT24=
EXTT25=
PLAYORDER=
